<svg width="24" height="24" viewBox="0 0 24 24" fill="none" xmlns="http://www.w3.org/2000/svg">
<path d="M9.05181 15.4438C6.10515 15.1295 3.90092 12.5937 3.99998 9.632C4.01682 8.5394 4.41347 7.48675 5.12184 6.65473L5.19398 3.9739C5.20261 3.65289 5.36488 3.35556 5.63018 3.17463C5.89548 2.9937 6.23153 2.95118 6.53354 3.06034L9.41098 4.10039C11.111 3.67651 12.8892 3.67698 14.589 4.10177L17.4664 3.06177C17.7684 2.95261 18.1045 2.99513 18.3698 3.17606C18.6351 3.35698 18.7973 3.65431 18.806 3.97532L18.8781 6.65477C19.5859 7.48711 19.9825 8.53954 20 9.632C20.099 12.5937 17.8948 15.1295 14.9481 15.4437" stroke="currentColor" stroke-width="1.5" stroke-linecap="round" stroke-linejoin="round"/>
<path d="M8.05188 21V18.8657C8.07879 17.657 8.4237 16.4767 9.05188 15.4436" stroke="currentColor" stroke-width="1.5" stroke-linecap="round" stroke-linejoin="round"/>
<path d="M14.9482 15.4436C15.6089 16.5302 15.9717 17.7717 16 19.0431V21" stroke="currentColor" stroke-width="1.5" stroke-linecap="round" stroke-linejoin="round"/>
<path d="M3 16.5656C3 18.2225 4.34315 19.5656 6 19.5656H8.05183" stroke="currentColor" stroke-width="1.5" stroke-linecap="round" stroke-linejoin="round"/>
</svg>
