<svg width="21" height="20" viewBox="0 0 21 20" fill="none" xmlns="http://www.w3.org/2000/svg">
<g clip-path="url(#clip0_258_8)">
<path d="M20.4997 10.2294C20.4997 9.54964 20.4434 8.8662 20.3235 8.19745H10.7002V12.0483H16.211C15.9823 13.2902 15.2475 14.3889 14.1716 15.087V17.5857H17.4594C19.39 15.844 20.4997 13.2719 20.4997 10.2294Z" fill="#4285F4"/>
<path d="M10.7003 20.0003C13.452 20.0003 15.7725 19.1147 17.4632 17.5862L14.1755 15.0875C13.2608 15.6975 12.0799 16.0429 10.7041 16.0429C8.04241 16.0429 5.78561 14.2828 4.97587 11.9165H1.58318V14.4923C3.31513 17.8691 6.84278 20.0003 10.7003 20.0003Z" fill="#34A853"/>
<path d="M4.97259 11.9165C4.54523 10.6745 4.54523 9.32965 4.97259 8.08769V5.5119H1.58365C0.136605 8.33755 0.136605 11.6666 1.58365 14.4922L4.97259 11.9165Z" fill="#FBBC04"/>
<path d="M10.7003 3.95726C12.1549 3.93521 13.5607 4.47168 14.6141 5.45643L17.5269 2.60139C15.6825 0.903794 13.2345 -0.0295151 10.7003 -0.000119569C6.84278 -0.000119569 3.31513 2.13106 1.58318 5.51155L4.97212 8.08733C5.77811 5.71732 8.03866 3.95726 10.7003 3.95726Z" fill="#EA4335"/>
</g>
<defs>
<clipPath id="clip0_258_8">
<rect width="20" height="20" fill="white" transform="translate(0.5)"/>
</clipPath>
</defs>
</svg>
