<svg width="32" height="32" viewBox="0 0 32 32" fill="none" xmlns="http://www.w3.org/2000/svg">
<path d="M20 28.6668C16.6867 28.6668 14 25.9801 14 22.6668C14 19.4214 16.76 16.6641 20.0053 16.6667C23.3173 16.6694 26 19.3548 26 22.6668C26 25.9801 23.3147 28.6668 20 28.6668" stroke="currentColor" stroke-width="1.2"/>
<path d="M10.667 5.33325V7.73325C10.667 8.17459 10.9657 8.53325 11.3337 8.53325H15.3337C15.7017 8.53325 16.0003 8.17459 16.0003 7.73325V5.33325" stroke="currentColor" stroke-width="1.2" stroke-linecap="round" stroke-linejoin="round"/>
<path d="M15.5283 26.6666H9.33366C7.86033 26.6666 6.66699 25.4733 6.66699 23.9999V7.99992C6.66699 6.52659 7.86033 5.33325 9.33366 5.33325H17.3337C18.807 5.33325 20.0003 6.52659 20.0003 7.99992V16.6666" stroke="currentColor" stroke-width="1.2" stroke-linecap="round" stroke-linejoin="round"/>
<path d="M19.9999 20V20.8934" stroke="currentColor" stroke-width="1.2" stroke-linecap="round" stroke-linejoin="round"/>
<path d="M19.9999 24.44V25.3333" stroke="currentColor" stroke-width="1.2" stroke-linecap="round" stroke-linejoin="round"/>
<path d="M17.6924 21.3334L18.4657 21.7734" stroke="currentColor" stroke-width="1.2" stroke-linecap="round" stroke-linejoin="round"/>
<path d="M21.5472 23.5599L22.3072 23.9999" stroke="currentColor" stroke-width="1.2" stroke-linecap="round" stroke-linejoin="round"/>
<path d="M17.6924 23.9999L18.4657 23.5599" stroke="currentColor" stroke-width="1.2" stroke-linecap="round" stroke-linejoin="round"/>
<path d="M21.5472 21.7734L22.3072 21.3334" stroke="currentColor" stroke-width="1.2" stroke-linecap="round" stroke-linejoin="round"/>
<path d="M21.2571 21.4089C21.9517 22.1035 21.9517 23.2297 21.2571 23.9243C20.5625 24.6189 19.4363 24.6189 18.7417 23.9243C18.0471 23.2297 18.0471 22.1035 18.7417 21.4089C19.4363 20.7143 20.5625 20.7143 21.2571 21.4089" stroke="currentColor" stroke-width="1.2" stroke-linecap="round" stroke-linejoin="round"/>
</svg>
