<svg width="37" height="40" viewBox="0 0 37 40" fill="none" xmlns="http://www.w3.org/2000/svg">
<g id="new.Selleo-logo">
<g id="sygnet">
<path id="Vector" d="M22.0008 26.726C22.0223 26.6328 22.0438 26.5395 22.0581 26.4427C22.0797 26.3062 22.094 26.1685 22.1011 26.0304C22.1011 26.0304 22.1011 26.0304 22.1011 26.0304C22.1184 25.6247 22.0823 25.2185 21.9937 24.8223C21.9937 24.7864 21.9937 24.747 21.9686 24.7111C21.6912 23.6587 21.0392 22.7443 20.1354 22.14C19.2315 21.5358 18.1383 21.2835 17.0617 21.4307H17.0115C16.0322 21.5018 15.0479 21.4645 14.0767 21.3196C11.2134 20.918 9.3236 19.0466 8.70799 16.7629C7.81321 13.4609 9.53477 10.3096 13.4181 8.68553C15.6479 7.7534 17.169 5.68835 16.5749 3.3365C16.434 2.77403 16.1837 2.24491 15.8384 1.77946C15.4931 1.314 15.0595 0.921338 14.5625 0.623956C14.0655 0.326574 13.5148 0.130311 12.9419 0.0464033C12.3691 -0.037504 11.7853 -0.0074074 11.2241 0.13497C9.0158 0.694252 7.781 2.82383 7.9528 5.05378C8.26776 9.20538 7.15824 11.6397 2.48391 13.8015C2.36157 13.855 2.24211 13.9148 2.126 13.9808C1.69141 14.2305 1.30379 14.5545 0.980678 14.938V14.938C0.903114 15.0286 0.830242 15.1232 0.762352 15.2212V15.2212C0.626321 15.4216 0.50663 15.6326 0.40444 15.8522V15.8522C0.354333 15.9562 0.311383 16.0638 0.268434 16.1749C0.267008 16.1868 0.267008 16.1988 0.268434 16.2107C0.229064 16.3183 0.193272 16.4223 0.16106 16.5334V16.5764C0.128848 16.6876 0.100215 16.7987 0.0787406 16.9098C0.0787406 16.9098 0.0787406 16.9098 0.0787406 16.9385C0.0572659 17.0485 0.0393703 17.168 0.0250538 17.297C0.0250538 17.4118 0.00357912 17.5265 0 17.6556V17.7058C0 17.8169 0 17.9316 0 18.0463C0 18.0643 0 18.0858 0 18.1037C0 18.2184 0.0214747 18.3332 0.0393703 18.4622C0.0376564 18.4777 0.0376564 18.4933 0.0393703 18.5088C0.0576786 18.6296 0.0827722 18.7493 0.114532 18.8673C0.143165 18.9856 0.178956 19.104 0.218326 19.2259C0.218326 19.2259 0.218326 19.2545 0.218326 19.2725C0.254117 19.38 0.297067 19.4876 0.343595 19.5915C0.354091 19.6096 0.362497 19.6289 0.368649 19.6489C0.418757 19.7493 0.468864 19.8497 0.522551 19.9465C0.522551 19.9644 0.540447 19.9787 0.547605 19.9931C0.60845 20.0935 0.665716 20.1903 0.733719 20.2871C0.801722 20.3839 0.869726 20.4771 0.944887 20.5703C1.01647 20.6599 1.09521 20.746 1.17395 20.8284L1.20616 20.8571C1.28405 20.9393 1.3665 21.0171 1.45312 21.0901C1.46091 21.1003 1.47064 21.1088 1.48175 21.1152C1.57123 21.1941 1.66071 21.2658 1.75377 21.3339C1.95092 21.4779 2.16053 21.6039 2.38011 21.7104V21.7104C2.48749 21.7641 2.59486 21.8143 2.70581 21.8573H2.72371C3.19112 22.0395 3.68623 22.1402 4.18757 22.1549V22.1549C4.31642 22.1549 4.44168 22.1549 4.57053 22.1549C8.2785 22.0008 10.8304 22.9006 12.3802 24.9513C12.8075 25.5542 13.1653 26.2037 13.4467 26.8873L13.4682 26.9303C14.2163 28.8555 15.8913 30.2071 17.824 30.1749C18.1486 30.1696 18.4716 30.1275 18.7868 30.0494C19.5557 29.8549 20.2578 29.4556 20.8186 28.8939C21.3794 28.3321 21.778 27.6289 21.9722 26.8586C21.9865 26.8192 21.9901 26.7726 22.0008 26.726Z" fill="#5C99D2"/>
<path id="Vector_2" d="M14.141 13.2232C14.1195 13.3202 14.0981 13.4136 14.0837 13.5069C14.0622 13.645 14.0478 13.784 14.0408 13.9236V13.9236C14.0204 14.3299 14.0554 14.7371 14.1446 15.1339C14.1446 15.1698 14.1446 15.2093 14.1696 15.2452C14.4478 16.2991 15.1 17.2147 16.0038 17.8199C16.9075 18.4251 18.0004 18.6781 19.0771 18.5315H19.1308C20.1101 18.4592 21.0945 18.4953 22.066 18.6392C24.9295 19.0451 26.8195 20.9198 27.4352 23.2076C28.33 26.5154 26.6083 29.6724 22.7246 31.2993C20.4981 32.2403 18.9769 34.3234 19.5711 36.6651C19.7128 37.2275 19.9635 37.7564 20.309 38.2217C20.6544 38.6869 21.0878 39.0792 21.5844 39.3764C22.081 39.6736 22.631 39.8697 23.2031 39.9535C23.7753 40.0374 24.3582 40.0073 24.9188 39.8651C27.1273 39.3012 28.3622 37.1715 28.194 34.9375C27.8754 30.7786 28.9851 28.3399 33.6634 26.1742C33.7816 26.1168 33.8961 26.0593 34.0214 25.9947C34.4553 25.7434 34.8427 25.419 35.1668 25.0357C35.1668 25.0357 35.1668 25.0357 35.1668 25.0357C35.242 24.9459 35.3171 24.849 35.3852 24.752C35.5208 24.5498 35.6405 24.3372 35.7431 24.1163V24.1163C35.7932 24.0086 35.8397 23.9008 35.8791 23.7931C35.8805 23.7811 35.8805 23.7691 35.8791 23.7571C35.9185 23.6494 35.9543 23.5452 35.9865 23.4339C35.9865 23.4339 35.9865 23.4052 35.9865 23.3908C36.0151 23.2795 36.0438 23.1681 36.0653 23.0568C36.067 23.0473 36.067 23.0376 36.0653 23.0281C36.0903 22.9131 36.1046 22.7982 36.1189 22.6689C36.1189 22.554 36.1189 22.4355 36.1404 22.3098V22.2559C36.1404 22.1446 36.1404 22.0332 36.1404 21.9183C36.1404 21.9183 36.1404 21.8788 36.1404 21.8572C36.1404 21.7423 36.1225 21.631 36.1046 21.516V21.4658C36.1046 21.3472 36.0617 21.2251 36.033 21.1066C36.0044 20.9881 35.965 20.8696 35.9257 20.7474V20.7008C35.8863 20.593 35.8433 20.4853 35.7968 20.3811C35.7863 20.363 35.7779 20.3437 35.7717 20.3237C35.7252 20.2231 35.6715 20.1225 35.6178 20.022V19.9573C35.5613 19.8558 35.4991 19.7574 35.4317 19.6628C35.3637 19.5658 35.2957 19.4761 35.2205 19.3827V19.3611C35.1453 19.2749 35.0702 19.1887 34.9878 19.1061L34.9592 19.0738C34.8769 18.9948 34.7945 18.9158 34.7122 18.8439L34.68 18.8152C34.5905 18.7398 34.501 18.668 34.408 18.5997C34.2091 18.4633 33.9997 18.3431 33.7816 18.2406V18.2406C33.6742 18.1903 33.5632 18.14 33.4522 18.0969C32.9846 17.9155 32.4894 17.8159 31.9882 17.8024V17.8024C31.863 17.8024 31.7341 17.8024 31.6052 17.8024C27.9005 17.9604 25.3447 17.059 23.7948 15.0046C23.3825 14.4114 23.0367 13.7742 22.7639 13.1047L22.7425 13.058C21.9944 11.1329 20.3227 9.77894 18.3863 9.82563C18.0615 9.82921 17.7383 9.8714 17.4234 9.95134C16.6547 10.1469 15.9529 10.5471 15.3922 11.1097C14.8314 11.6724 14.4325 12.3765 14.2377 13.1478C14.1589 13.1334 14.1517 13.1801 14.141 13.2232Z" fill="#FF6D2A"/>
</g>
</g>
</svg>
