<svg width="32" height="32" viewBox="0 0 32 32" fill="none" xmlns="http://www.w3.org/2000/svg">
<path fill-rule="evenodd" clip-rule="evenodd" d="M14.2016 28.0149C13.3651 28.014 12.5774 27.6208 12.074 26.9527C11.5705 26.2847 11.4096 25.4192 11.6392 24.6148L11.9833 23.4143C12.0525 23.1754 12.0875 22.928 12.0874 22.6793C12.0874 21.206 10.893 20.0116 9.41959 20.0116H6.66778C5.1944 20.0116 4 18.8172 4 17.3438V16.0099C4 15.8952 4 15.7791 4 15.6644C4.09034 12.4815 5.44151 9.46481 7.75623 7.27818C10.0709 5.09155 13.1595 3.91409 16.3425 4.00489C22.6852 4.24262 27.7723 9.3297 28.01 15.6724C28.01 15.7871 28.01 15.9018 28.01 16.0166C28.0063 22.6441 22.6326 28.0149 16.005 28.0149H14.2016Z" stroke="currentColor" stroke-width="1.2" stroke-linecap="round" stroke-linejoin="round"/>
<path d="M22.6781 15.64C22.4919 15.6408 22.3414 15.7922 22.3419 15.9784C22.3424 16.1646 22.4936 16.3152 22.6798 16.315C22.866 16.3147 23.0169 16.1637 23.0169 15.9775C23.0172 15.8877 22.9816 15.8014 22.9179 15.738C22.8543 15.6746 22.7679 15.6393 22.6781 15.64" stroke="currentColor" stroke-width="1.5" stroke-linecap="round" stroke-linejoin="round"/>
<path d="M16.0406 9.00652C15.9039 9.00707 15.781 9.09008 15.7294 9.21671C15.6778 9.34335 15.7078 9.48859 15.8052 9.58451C15.9027 9.68043 16.0484 9.70806 16.1742 9.65449C16.3 9.60091 16.381 9.47672 16.3794 9.33999C16.3798 9.25015 16.3441 9.1639 16.2805 9.10049C16.2168 9.03709 16.1304 9.00181 16.0406 9.00252" stroke="currentColor" stroke-width="1.5" stroke-linecap="round" stroke-linejoin="round"/>
<path d="M11.3518 10.942C11.1657 10.9435 11.016 11.0952 11.017 11.2813C11.018 11.4673 11.1693 11.6175 11.3553 11.617C11.5414 11.6165 11.6919 11.4655 11.6919 11.2795C11.6923 11.1894 11.6565 11.103 11.5925 11.0395C11.5286 10.9761 11.4418 10.941 11.3518 10.942" stroke="currentColor" stroke-width="1.5" stroke-linecap="round" stroke-linejoin="round"/>
<path d="M20.7281 20.3295C20.5419 20.3302 20.3915 20.4816 20.392 20.6678C20.3925 20.8541 20.5437 21.0047 20.7299 21.0044C20.9161 21.0042 21.0669 20.8532 21.0669 20.667C21.0676 20.577 21.0321 20.4905 20.9684 20.4271C20.9047 20.3636 20.8181 20.3284 20.7281 20.3295" stroke="currentColor" stroke-width="1.5" stroke-linecap="round" stroke-linejoin="round"/>
<path d="M20.7281 10.942C20.5419 10.9428 20.3915 11.0942 20.392 11.2804C20.3925 11.4666 20.5437 11.6172 20.7299 11.617C20.9161 11.6167 21.0669 11.4657 21.0669 11.2795C21.0676 11.1896 21.0321 11.1031 20.9684 11.0396C20.9047 10.9761 20.8181 10.941 20.7281 10.942" stroke="currentColor" stroke-width="1.5" stroke-linecap="round" stroke-linejoin="round"/>
</svg>
