<svg xmlns="http://www.w3.org/2000/svg" viewBox="0 0 120 40" enable-background="new 0 0 120 40"><defs><radialGradient id="0" cx="23.612" cy="49.834" r=".999" gradientTransform="matrix(24.7323 0 0-24.7323-570.64 1257.58)" gradientUnits="userSpaceOnUse"><stop stop-color="#f79606"/><stop offset="1" stop-color="#f96603"/></radialGradient><radialGradient id="1" cx="23.534" cy="49.843" r=".999" gradientTransform="matrix(23.653 0 0-23.653-550.92 1198.04)" gradientUnits="userSpaceOnUse"><stop stop-color="#00d0fe"/><stop offset=".691" stop-color="#0093e9"/><stop offset="1" stop-color="#0077b2"/></radialGradient></defs><g transform="matrix(1.30088 0 0 1.30088 2.562-21.08)"><path fill="url(#1)" d="m6.657 16.463c-1.689.428-2.632 2.051-2.502 3.752.242 3.17-.605 5.03-4.181 6.677h.001c-.089.041-.176.086-.26.135-.001.001-.003.002-.004.003-.336.194-.632.442-.877.73-.003.004-.006.008-.009.011-.059.069-.116.142-.168.216-.002.004-.005.006-.007.01-.108.152-.203.313-.285.482-.001.002-.002.003-.003.005-.039.08-.074.162-.105.245-.004.01-.007.019-.011.029-.031.08-.057.162-.081.245-.004.012-.007.023-.009.035-.024.083-.045.168-.062.254-.002.008-.003.014-.004.02-.016.088-.03.175-.04.264 0 .003-.001.008-.001.011-.009.088-.014.175-.017.264 0 .014-.001.026-.001.041-.002.085.001.171.007.257 0 .016.002.032.003.047.006.088.016.175.03.26.002.013.004.026.006.038.015.092.033.183.057.275.023.092.051.18.08.269.004.012.008.023.012.035.029.083.062.164.098.243.006.015.013.029.019.044.036.077.075.155.117.23.006.011.013.023.02.034.044.077.09.152.141.224.002.003.004.006.007.009.05.074.104.145.161.214.004.005.008.01.012.017.057.067.115.132.176.194.008.008.015.016.023.025.061.062.123.121.189.177.008.006.015.012.023.02.068.057.138.113.209.165.002.001.004.002.006.004.151.109.312.203.479.287.003.002.007.004.011.006.082.041.166.077.251.11.004.003.009.004.013.005.353.137.731.215 1.119.227h.006c.097.002.195.001.293-.005 2.834-.118 4.786.568 5.969 2.133.298.423.564.903.79 1.447.005.012.011.023.015.035.573 1.468 1.851 2.501 3.33 2.474.24-.004.485-.033.735-.095 1.239-.315 2.142-1.278 2.436-2.434.008-.034.013-.069.021-.104.016-.072.032-.143.044-.215.016-.104.027-.209.033-.316 0-.004.001-.008.001-.011.017-.303-.012-.612-.081-.92-.007-.029-.01-.057-.018-.086-.427-1.691-2.058-2.704-3.752-2.504-.014.002-.027.002-.041.003-.834.062-1.569.013-2.244-.083-2.179-.309-3.635-1.735-4.107-3.48-.683-2.519.632-4.928 3.601-6.163 1.706-.71 2.868-2.288 2.413-4.082-.385-1.524-1.755-2.539-3.259-2.54-.273-.003-.551.031-.828.101"/><path fill="url(#0)" d="m12.12 23.919c-.239.003-.485.032-.735.095-1.239.314-2.141 1.277-2.436 2.434-.009.034-.014.069-.021.104-.016.072-.033.143-.044.215-.016.104-.027.21-.032.316-.001.005-.002.008-.002.011-.016.303.012.612.082.921.007.029.01.058.018.086v.001c.427 1.689 2.057 2.703 3.752 2.503.014-.002.027-.002.041-.004.834-.062 1.569-.012 2.245.083 2.179.309 3.634 1.736 4.106 3.481.683 2.519-.632 4.928-3.601 6.162-1.706.71-2.867 2.288-2.413 4.081.456 1.802 2.286 2.893 4.088 2.437 1.689-.428 2.632-2.051 2.502-3.753-.242-3.169.605-5.03 4.18-6.677.089-.041.176-.086.26-.135.002-.001.003-.002.004-.002.336-.194.631-.443.876-.731.003-.003.006-.007.009-.011.059-.071.115-.142.168-.216.002-.005.005-.007.006-.011.108-.152.204-.312.285-.482.001-.001.002-.003.002-.004.039-.081.074-.164.106-.246.003-.01.007-.019.01-.028.031-.08.058-.162.082-.245.004-.011.006-.023.009-.033.024-.085.045-.169.062-.255.001-.007.002-.014.004-.021.017-.086.03-.174.04-.263 0-.003.001-.008.001-.011.01-.088.014-.176.017-.265 0-.014.001-.026.001-.041.002-.085-.001-.171-.006-.257 0-.016-.002-.031-.003-.046-.006-.088-.017-.175-.03-.261-.002-.013-.005-.026-.006-.038-.015-.092-.033-.183-.057-.275-.024-.092-.051-.18-.081-.269-.004-.011-.008-.024-.012-.035-.029-.083-.063-.165-.098-.244-.006-.014-.012-.029-.019-.043-.036-.078-.075-.155-.117-.23-.006-.011-.013-.023-.02-.035-.045-.076-.09-.152-.141-.224-.002-.004-.004-.007-.007-.01-.05-.074-.104-.145-.161-.214-.005-.005-.008-.011-.012-.016-.057-.067-.116-.133-.176-.195-.008-.008-.016-.017-.024-.024-.061-.062-.123-.121-.189-.177-.008-.007-.015-.013-.023-.02-.068-.058-.138-.113-.21-.165-.002-.002-.004-.003-.005-.004-.152-.109-.312-.205-.479-.288-.003-.002-.007-.004-.011-.006-.082-.04-.166-.077-.251-.11-.005-.003-.009-.004-.014-.005-.352-.137-.73-.215-1.118-.226h-.006c-.097-.003-.194-.001-.292.005v-.001c-2.835.12-4.786-.567-5.97-2.131-.297-.423-.563-.904-.79-1.448-.005-.011-.011-.023-.016-.035-.565-1.45-1.819-2.474-3.275-2.474-.016.005-.035.005-.053.005"/></g><g fill="#2f3033"><path d="m-243.15-188.86c1.253 0 1.708-.398 1.708-1.139 0-.911-.854-1.281-2.278-1.708-2.591-.77-5.41-1.822-5.41-5.125 0-2.421 1.566-3.987 5.125-3.987 2.562 0 4.556.569 4.556.569.143.058.256.171.285.285 0 0 .285 2.164.285 2.277 0 .172-.113.285-.285.285-.142 0-2.42-.569-4.84-.569-1.139 0-1.708.398-1.708 1.14 0 .91.854 1.28 2.278 1.708 2.591.769 5.41 1.793 5.41 5.125 0 2.278-1.851 3.986-5.125 3.986-3.132 0-5.41-.854-5.41-.854-.143-.058-.256-.172-.284-.285 0 0-.285-2.164-.285-2.278 0-.171.114-.284.285-.284.14 0 3.131.854 5.693.854" transform="translate(294.64 215.65)"/><path d="m-263.09-211.64h6.378c-.113-1.594-.825-3.132-2.819-3.132-2.704 0-3.36 1.338-3.559 3.132m0 2.848c.228 1.822.997 3.132 3.844 3.132 2.278 0 4.698-.569 4.841-.569.171 0 .284.114.284.285 0 .085-.284 2.277-.284 2.277-.029.143-.114.257-.284.285 0 0-1.994.569-4.557.569-6.122 0-7.403-3.332-7.403-7.403 0-4.072 1.311-7.375 7.118-7.375 4.04 0 6.294 2.25 6.294 7.375v1.139c0 .143-.144.285-.313.285h-9.54z" transform="translate(325.6 232.45)"/><path d="m-286.74-258.39c0-.171.114-.285.285-.285l2.848-.285c.17 0 .285.114.285.285v18.822c0 1.139.284 1.879.284 1.993 0 .171-.114.285-.284.285h-2.848c-.114 0-.229-.114-.285-.285 0 0-.285-.854-.285-1.993v-18.537" transform="translate(362.32 266.93)"/><path d="m-300.49-258.39c0-.171.114-.285.285-.285l2.848-.285c.17 0 .284.114.284.285v18.822c0 1.139.284 1.879.284 1.993 0 .171-.114.285-.284.285h-2.848c-.114 0-.228-.114-.284-.285 0 0-.285-.854-.285-1.993v-18.537" transform="translate(383.68 266.93)"/><path d="m-319.25-211.64h6.378c-.113-1.594-.825-3.132-2.819-3.132-2.706 0-3.36 1.338-3.559 3.132m0 2.848c.228 1.822.997 3.132 3.844 3.132 2.278 0 4.698-.569 4.841-.569.171 0 .284.114.284.285 0 .085-.284 2.277-.284 2.277-.028.143-.114.257-.284.285 0 0-1.994.569-4.557.569-6.122 0-7.403-3.332-7.403-7.403 0-4.072 1.311-7.375 7.118-7.375 4.04 0 6.294 2.25 6.294 7.375v1.139c0 .143-.144.285-.313.285h-9.54z" transform="translate(412.8 232.45)"/><path d="m-354.24-188.86c2.847 0 3.701-1.708 3.701-4.556 0-2.848-.854-4.556-3.701-4.556-2.848 0-3.702 1.708-3.702 4.556-.001 2.848.854 4.556 3.702 4.556m0-11.96c4.271 0 7.118 2.278 7.118 7.404 0 5.125-2.848 7.403-7.118 7.403-4.271 0-7.119-2.278-7.119-7.403 0-5.126 2.847-7.404 7.119-7.404" transform="translate(467.12 215.65)"/></g></svg>
