<svg width="32" height="32" viewBox="0 0 32 32" fill="none" xmlns="http://www.w3.org/2000/svg">
<path d="M24 6.66667H28" stroke="currentColor" stroke-width="1.2" stroke-linecap="round" stroke-linejoin="round"/>
<path d="M4 6.66667H14.6667" stroke="currentColor" stroke-width="1.2" stroke-linecap="round" stroke-linejoin="round"/>
<path d="M17.3333 15.9999H27.9999" stroke="currentColor" stroke-width="1.2" stroke-linecap="round" stroke-linejoin="round"/>
<path d="M4 15.9999H8" stroke="currentColor" stroke-width="1.2" stroke-linecap="round" stroke-linejoin="round"/>
<path d="M24 25.3332H28" stroke="currentColor" stroke-width="1.2" stroke-linecap="round" stroke-linejoin="round"/>
<path d="M4 25.3332H14.6667" stroke="currentColor" stroke-width="1.2" stroke-linecap="round" stroke-linejoin="round"/>
<path d="M23.2187 4.78124C24.26 5.82258 24.26 7.51058 23.2187 8.55191C22.1773 9.59324 20.4893 9.59324 19.448 8.55191C18.4067 7.51058 18.4067 5.82258 19.448 4.78124C20.4893 3.73991 22.1773 3.73991 23.2187 4.78124" stroke="currentColor" stroke-width="1.2" stroke-linecap="round" stroke-linejoin="round"/>
<path d="M12.5519 14.1145C13.5932 15.1558 13.5932 16.8438 12.5519 17.8852C11.5106 18.9265 9.82258 18.9265 8.78124 17.8852C7.73991 16.8438 7.73991 15.1558 8.78124 14.1145C9.82258 13.0732 11.5106 13.0732 12.5519 14.1145" stroke="currentColor" stroke-width="1.2" stroke-linecap="round" stroke-linejoin="round"/>
<path d="M23.2187 23.448C24.26 24.4893 24.26 26.1773 23.2187 27.2187C22.1773 28.26 20.4893 28.26 19.448 27.2187C18.4067 26.1773 18.4067 24.4893 19.448 23.448C20.4893 22.4067 22.1773 22.4067 23.2187 23.448" stroke="currentColor" stroke-width="1.2" stroke-linecap="round" stroke-linejoin="round"/>
</svg>
